<?xml version="1.0" encoding="UTF-8" standalone="no"?>
<!-- Created with Inkscape (http://www.inkscape.org/) -->

<svg
   width="210mm"
   height="297mm"
   viewBox="0 0 210 297"
   version="1.1"
   id="svg1026"
   inkscape:version="1.2.2 (732a01da63, 2022-12-09)"
   sodipodi:docname="buben list.svg"
   xmlns:inkscape="http://www.inkscape.org/namespaces/inkscape"
   xmlns:sodipodi="http://sodipodi.sourceforge.net/DTD/sodipodi-0.dtd"
   xmlns="http://www.w3.org/2000/svg"
   xmlns:svg="http://www.w3.org/2000/svg">
  <sodipodi:namedview
     id="namedview1028"
     pagecolor="#ffffff"
     bordercolor="#000000"
     borderopacity="0.25"
     inkscape:showpageshadow="2"
     inkscape:pageopacity="0.0"
     inkscape:pagecheckerboard="0"
     inkscape:deskcolor="#d1d1d1"
     inkscape:document-units="mm"
     showgrid="false"
     inkscape:zoom="0.50646226"
     inkscape:cx="319.86589"
     inkscape:cy="599.25492"
     inkscape:window-width="1920"
     inkscape:window-height="991"
     inkscape:window-x="-9"
     inkscape:window-y="-9"
     inkscape:window-maximized="1"
     inkscape:current-layer="layer1" />
  <defs
     id="defs1023" />
  <g
     inkscape:label="Vrstva 1"
     inkscape:groupmode="layer"
     id="layer1">
    <g
       id="g13354"
       style="fill:#66bc57;fill-opacity:1;stroke:none;stroke-opacity:1"
       inkscape:label="g13354"
       transform="matrix(1.034692,0,0,1.034692,-51.56577,-115.29849)">
      <path
         style="opacity:1;fill:#66bc57;fill-opacity:1;stroke:none;stroke-width:1;stroke-linecap:round;stroke-linejoin:round;stroke-dasharray:none;stroke-opacity:1;paint-order:stroke fill markers"
         d="m 174.35821,349.08582 c -8.06349,-0.6797 -11.8361,-12.47392 -3.09375,-19.16279 7.60436,-4.41402 49.22278,-5.00558 56.76956,-52.78203 0.49456,-4.43105 -1.63789,-21.86106 -43.88283,-29.25522 -9.88793,-2.72879 -7.02882,-7.64849 -1.30604,-13.06037 17.39024,-16.71653 20.07239,-33.99237 -10.18709,-46.49491 -5.68532,-2.40252 -6.8186,-1.02306 -7.3138,3.65691 -5.49174,57.70426 -18.36308,131.26864 -45.9725,194.59948 -3.60102,11.50078 -23.278715,10.97438 -16.71727,-4.17932 31.81985,-56.66632 51.40748,-126.45039 54.33113,-200.60725 0.35666,-3.63425 4.6012,-5.185 10.18709,-4.17932 6.11716,1.69972 27.55876,4.92871 38.91989,25.33712 3.24466,6.22705 2.83386,17.92733 -7.80045,29.98316 -4.44255,5.28262 -1.09738,7.64618 1.53148,8.41432 v 0 c 14.70974,4.78665 34.62629,7.85469 39.70352,29.25522 4.3653,24.10353 -31.96222,81.30736 -65.16894,78.475 z"
         id="path11254"
         sodipodi:nodetypes="ccccccccccccccccc" />
      <path
         style="opacity:1;fill:#66bc57;fill-opacity:1;stroke:none;stroke-width:1;stroke-linecap:round;stroke-linejoin:round;stroke-dasharray:none;stroke-opacity:1;paint-order:stroke fill markers"
         d="m 162.81391,157.43511 c -0.92262,3.25484 3.81808,6.00258 5.70621,2.19829 7.57711,-18.09904 4.78233,-29.16459 -0.88867,-35.21944 -4.38699,-5.51001 -27.94091,-17.75256 -48.26888,-3.74177 -7.51655,5.88554 -6.52874,15.39909 -1.49671,31.80507 0.93261,4.16579 -1.82738,5.11545 -4.67722,5.98684 -18.877644,0.71608 -31.712296,8.11125 -33.863045,27.31495 -0.481904,15.98684 9.611708,23.6972 20.392665,30.86963 2.89286,1.87852 3.11726,3.97985 -1.496709,7.67063 -66.753768,53.34865 -44.851595,81.27048 -0.187089,103.83421 6.448558,2.99597 23.781148,-4.89028 5.238478,-13.0962 -38.044082,-14.36854 -52.203866,-37.71486 8.60608,-89.2413 11.78945,-10.85226 7.80562,-15.51893 -2.80633,-17.58633 -25.431104,-6.85085 -29.782922,-39.47665 0.56127,-40.97242 20.47194,1.15795 21.81979,-8.06341 17.77342,-16.27671 -18.01633,-32.99426 53.30946,-42.99612 35.40653,6.45455 z"
         id="path12849"
         sodipodi:nodetypes="cccccccccccccccc" />
    </g>
  </g>
</svg>
